<svg width="11" height="11" viewBox="0 0 11 11" fill="none" xmlns="http://www.w3.org/2000/svg">
<path d="M5.5 0C2.46734 0 0 2.46734 0 5.5C0 8.53266 2.46734 11 5.5 11C6.46713 11 7.41814 10.7455 8.25067 10.2638L7.5625 9.07345C6.93879 9.43432 6.22543 9.62501 5.5 9.62501C3.22535 9.62501 1.37499 7.77465 1.37499 5.5C1.37499 3.22535 3.22535 1.37499 5.5 1.37499C7.77465 1.37499 9.62501 3.22535 9.62501 5.5V6.09887C9.62501 6.54871 9.33598 6.87499 8.9375 6.87499C8.55849 6.87499 8.24999 6.56649 8.24999 6.18749V3.4375H7.29962C6.81597 3.01498 6.19112 2.74999 5.5 2.74999C3.98367 2.74999 2.74999 3.98367 2.74999 5.5C2.74999 7.01633 3.98367 8.25001 5.5 8.25001C6.22208 8.25001 6.87492 7.96446 7.36613 7.50763C7.74476 7.95759 8.30477 8.25001 8.9375 8.25001C10.094 8.25001 11 7.30505 11 6.09887V5.5C11 2.46734 8.53266 0 5.5 0V0ZM5.5 6.87499C4.74166 6.87499 4.12501 6.25832 4.12501 5.5C4.12501 4.74166 4.74168 4.12501 5.5 4.12501C6.25834 4.12501 6.87499 4.74168 6.87499 5.5C6.87499 6.25834 6.25834 6.87499 5.5 6.87499Z" fill="white"/>
</svg>
