<svg width="41" height="47" viewBox="0 0 41 47" fill="none" xmlns="http://www.w3.org/2000/svg">
<path d="M27.4393 13.0617H5.88953C5.49629 13.0617 5.17754 13.3804 5.17754 13.7737C5.17754 14.1669 5.49629 14.4856 5.88953 14.4856H27.4394C27.8327 14.4856 28.1514 14.1669 28.1514 13.7737C28.1514 13.3804 27.8326 13.0617 27.4393 13.0617Z" fill="#404040" stroke="#404040" stroke-width="0.1"/>
<path d="M5.88953 9.89364H16.6644C17.0576 9.89364 17.3764 9.57488 17.3764 9.18165C17.3764 8.78841 17.0576 8.46965 16.6644 8.46965H5.88953C5.49629 8.46965 5.17754 8.78841 5.17754 9.18165C5.17754 9.57498 5.4963 9.89364 5.88953 9.89364Z" fill="#404040" stroke="#404040" stroke-width="0.1"/>
<path d="M27.4393 17.1303H5.88953C5.49629 17.1303 5.17754 17.4491 5.17754 17.8423C5.17754 18.2355 5.49629 18.5543 5.88953 18.5543H27.4394C27.8327 18.5543 28.1514 18.2355 28.1514 17.8423C28.1513 17.4491 27.8326 17.1303 27.4393 17.1303Z" fill="#404040" stroke="#404040" stroke-width="0.1"/>
<path d="M10.7983 41.3505H3.90175C2.79742 41.3505 1.8988 40.452 1.8988 39.3476V4.37685C1.8988 3.27252 2.79742 2.3739 3.90175 2.3739H23.77C23.8167 2.3739 23.8632 2.37717 23.9098 2.3824V6.4668C23.9098 8.35646 25.4471 9.89364 27.3366 9.89364H31.421C31.4262 9.94029 31.4295 9.98682 31.4295 10.0336V21.3065C31.4295 21.6998 31.7482 22.0185 32.1414 22.0185C32.5347 22.0185 32.8534 21.6998 32.8534 21.3065V10.0337C32.8534 9.29425 32.5653 8.5988 32.0425 8.07588L32.0071 8.11123L32.0425 8.07588L25.7276 1.76093C25.2047 1.2381 24.5094 0.95 23.77 0.95H3.90175C2.01208 0.95 0.474902 2.48727 0.474902 4.37685V39.3476C0.474902 41.2372 2.01217 42.7744 3.90175 42.7744H10.7983C11.1915 42.7744 11.5103 42.4557 11.5103 42.0624C11.5103 41.6692 11.1915 41.3505 10.7983 41.3505ZM25.3338 3.3809L30.4226 8.46975H27.3367C26.2324 8.46975 25.3338 7.57113 25.3338 6.4668V3.3809Z" fill="#404040" stroke="#404040" stroke-width="0.1"/>
<mask id="path-5-outside-1" maskUnits="userSpaceOnUse" x="4.67236" y="22.2277" width="36" height="24" fill="#404040">
<rect fill="white" x="4.67236" y="22.2277" width="36" height="24"/>
<path d="M40.2716 33.4078L34.6626 23.9403C34.2538 23.25 33.3642 23.0218 32.6735 23.4309L31.3092 24.2393C30.2502 24.8666 29.8026 26.1362 30.1662 27.2613C29.7065 27.4278 29.2025 27.4252 28.7385 27.2458C27.6613 26.9069 26.8423 26.2251 25.4898 26.5672C23.1932 27.152 23.263 27.1227 23.0552 27.1939C21.7105 26.4283 20.9022 26.2004 19.4746 26.7527L18.2022 27.2446C17.613 27.4722 16.9639 27.4183 16.4195 27.0957L16.0722 26.891C16.2417 25.8757 15.7914 24.8042 14.838 24.2394C14.838 24.2394 14.838 24.2394 14.8379 24.2393L13.4736 23.4311C12.7849 23.0232 11.8927 23.2515 11.4847 23.9403L5.8755 33.4079C5.46672 34.098 5.69418 34.9879 6.38465 35.3969L7.74889 36.2051C8.16171 36.4497 8.6154 36.566 9.06364 36.566C9.56348 36.566 10.0563 36.4212 10.4776 36.1483L10.762 36.3161L10.1617 37.1522C9.44632 38.1487 9.6736 39.5344 10.6703 40.2499C11.1312 40.5807 11.7102 40.7318 12.309 40.6377C12.404 41.1931 12.7083 41.7129 13.201 42.0667C13.6637 42.399 14.2401 42.5502 14.84 42.4557C14.9353 43.0107 15.2394 43.53 15.7318 43.8836C16.3936 44.3587 17.2165 44.4136 17.9021 44.1207C18.0521 44.5104 18.3129 44.8624 18.6767 45.1236C19.6266 45.8053 20.9351 45.6275 21.6732 44.7442L23.2684 45.6892C24.3234 46.3144 25.6845 45.967 26.3101 44.9108C26.47 44.6408 26.5693 44.3465 26.6056 44.0441L26.6092 44.0463C27.6625 44.6701 29.0268 44.3209 29.6508 43.2678C29.8315 42.9627 29.9305 42.6318 29.9546 42.3002C30.8831 42.5336 31.895 42.1436 32.4074 41.2788C32.5755 40.9951 32.673 40.6886 32.7051 40.3802C33.7002 40.7707 34.8632 40.3933 35.4252 39.4448C35.7275 38.9346 35.813 38.3373 35.6659 37.7627C35.5818 37.434 35.4271 37.1356 35.2148 36.8836L36.0941 36.3699C36.8379 36.6753 37.6867 36.6264 38.3981 36.205L39.7622 35.3968C40.4526 34.9881 40.6807 34.0984 40.2716 33.4078ZM8.42371 35.0661L7.05947 34.2578C6.99883 34.2219 6.9787 34.1433 7.01456 34.0827L12.6237 24.6148C12.6599 24.5539 12.7387 24.5341 12.799 24.57L14.1631 25.3781C14.7693 25.7374 14.959 26.5148 14.6064 27.1099L10.1555 34.6228C9.80025 35.2226 9.02348 35.4213 8.42371 35.0661ZM11.4423 39.1743C11.0403 38.8857 10.9484 38.3265 11.2372 37.9244L12.1195 36.6953C12.4006 36.3037 12.9607 36.1966 13.3695 36.4901C13.7707 36.7781 13.8627 37.3387 13.5748 37.74L12.6924 38.969C12.4044 39.3704 11.8434 39.4622 11.4423 39.1743ZM13.9731 40.9913C13.5719 40.7032 13.4799 40.1424 13.7679 39.7412L14.6502 38.5123C14.6502 38.5123 14.6502 38.5123 14.6502 38.5122C14.6502 38.5122 14.6502 38.5121 14.6503 38.5121L15.6241 37.1558C15.7636 36.9614 15.9704 36.8329 16.2065 36.7943C16.2556 36.7862 16.3047 36.7822 16.3535 36.7822C16.5393 36.7822 16.7201 36.84 16.874 36.9505C17.0683 37.0901 17.1968 37.2968 17.2354 37.5329C17.2742 37.7691 17.2187 38.0061 17.0792 38.2004L15.223 40.786C14.9346 41.1881 14.3753 41.2801 13.9731 40.9913ZM16.5039 42.8081C16.1029 42.5202 16.0108 41.9598 16.2983 41.5586C16.2984 41.5585 16.2985 41.5583 16.2986 41.5581L18.1548 38.9726C18.4426 38.5715 19.0037 38.4794 19.4048 38.7673C19.806 39.0553 19.898 39.6161 19.61 40.0173L18.7853 41.1661C18.7853 41.1661 18.7853 41.1661 18.7852 41.1662L17.7538 42.6029C17.4658 43.0041 16.9052 43.0963 16.5039 42.8081ZM19.4488 44.048C19.0478 43.7601 18.9556 43.2 19.243 42.7988L19.8607 41.9383C20.1487 41.537 20.7097 41.4453 21.1107 41.7331C21.5119 42.021 21.604 42.5819 21.3159 42.9831L20.6987 43.8427C20.4108 44.244 19.8498 44.3361 19.4488 44.048ZM34.2864 38.77C34.0345 39.1952 33.484 39.3361 33.0587 39.0843C32.3387 38.6578 27.6943 35.9062 27.1991 35.6128C26.8844 35.4265 26.4785 35.5303 26.2921 35.8449C26.1058 36.1594 26.2096 36.5655 26.5242 36.7518L30.9541 39.3763L30.9542 39.3764C31.3795 39.6283 31.5214 40.1772 31.2685 40.6041C31.0165 41.0294 30.4657 41.1702 30.0407 40.9185C28.4022 39.9479 27.0718 39.1597 25.6083 38.2926C25.2936 38.1063 24.8877 38.2101 24.7014 38.5246C24.5151 38.8392 24.6189 39.2453 24.9334 39.4316L28.1975 41.3654L28.1982 41.3658C28.6238 41.6185 28.7642 42.1671 28.5119 42.5932C28.2599 43.0185 27.7093 43.1594 27.284 42.9075L25.5322 41.8698C25.5321 41.8697 25.5318 41.8696 25.5316 41.8694C25.5314 41.8693 25.5313 41.8692 25.5311 41.8691L24.2527 41.1117C23.9381 40.9253 23.5321 41.0291 23.3458 41.3437C23.1595 41.6583 23.2633 42.0644 23.5778 42.2507L24.8564 43.0082C24.8566 43.0083 24.8568 43.0085 24.857 43.0086C25.2823 43.2605 25.4241 43.8092 25.1713 44.2362C24.9193 44.6615 24.3687 44.8024 23.9433 44.5505L22.4518 43.667C23.0912 42.6803 22.848 41.3507 21.8828 40.6579C21.5994 40.4545 21.2838 40.3279 20.961 40.2735C21.3034 39.3579 21.0082 38.289 20.1768 37.6922C19.6846 37.3387 19.0953 37.2167 18.5391 37.3038C18.4402 36.7251 18.1237 36.2181 17.6462 35.8754C16.7481 35.2309 15.5276 35.3548 14.7738 36.1174C14.6206 35.8484 14.4091 35.607 14.1416 35.415C13.3953 34.8794 12.4264 34.8744 11.6876 35.3255L11.3843 35.1465L15.5477 28.1188L15.7459 28.2357C16.6213 28.7543 17.6895 28.8624 18.6795 28.4795L19.952 27.9876C20.6801 27.7062 21.0817 27.6878 21.802 28.0277C21.3307 28.5571 21.051 29.2523 21.051 30.0015V32.9366C21.051 33.7162 21.6847 34.3508 22.4637 34.3513H22.4656C23.247 34.3513 23.9818 34.0471 24.5345 33.4948C24.8567 33.1727 25.0945 32.7888 25.2371 32.3698C26.0918 32.8759 33.1536 37.0577 33.9723 37.5427C34.1782 37.6647 34.3243 37.8596 34.3836 38.0914C34.4429 38.323 34.4084 38.5641 34.2864 38.77ZM39.0877 34.2578L37.7234 35.0661C37.1236 35.4212 36.3468 35.2223 35.9917 34.6229L33.9056 31.1016C33.7192 30.787 33.3129 30.6832 32.9986 30.8694C32.6841 31.0557 32.5802 31.4618 32.7664 31.7763L34.8526 35.2977C34.8919 35.364 34.9345 35.427 34.9786 35.4885L34.3986 35.8273C34.2814 35.8967 34.1686 35.9732 34.0608 36.0562L25.0676 30.7305C24.627 30.4697 24.0683 30.7876 24.0683 31.3C24.0614 31.3396 24.1367 32.02 23.5986 32.558C23.2959 32.8604 22.8935 33.0271 22.4656 33.0271C22.4652 33.0271 22.4649 33.0271 22.4645 33.0271C22.415 33.0271 22.3748 32.9863 22.3748 32.9362V30.0011C22.3748 29.2343 22.9023 28.5875 23.6157 28.4069L25.8144 27.8504C26.6121 27.6488 27.0631 28.0748 28.2576 28.4791C29.0869 28.7999 29.9886 28.7801 30.7889 28.4383L31.1884 29.1128C31.3749 29.4275 31.7809 29.5312 32.0954 29.345C32.4099 29.1587 32.5138 28.7526 32.3276 28.4381L31.5406 27.1098C31.1846 26.5088 31.3829 25.7343 31.9838 25.3781L33.3481 24.5699C33.4077 24.5345 33.4865 24.5526 33.5234 24.6148L39.1324 34.0825C39.1686 34.1436 39.1487 34.2217 39.0877 34.2578Z"/>
</mask>
<path d="M40.2716 33.4078L34.6626 23.9403C34.2538 23.25 33.3642 23.0218 32.6735 23.4309L31.3092 24.2393C30.2502 24.8666 29.8026 26.1362 30.1662 27.2613C29.7065 27.4278 29.2025 27.4252 28.7385 27.2458C27.6613 26.9069 26.8423 26.2251 25.4898 26.5672C23.1932 27.152 23.263 27.1227 23.0552 27.1939C21.7105 26.4283 20.9022 26.2004 19.4746 26.7527L18.2022 27.2446C17.613 27.4722 16.9639 27.4183 16.4195 27.0957L16.0722 26.891C16.2417 25.8757 15.7914 24.8042 14.838 24.2394C14.838 24.2394 14.838 24.2394 14.8379 24.2393L13.4736 23.4311C12.7849 23.0232 11.8927 23.2515 11.4847 23.9403L5.8755 33.4079C5.46672 34.098 5.69418 34.9879 6.38465 35.3969L7.74889 36.2051C8.16171 36.4497 8.6154 36.566 9.06364 36.566C9.56348 36.566 10.0563 36.4212 10.4776 36.1483L10.762 36.3161L10.1617 37.1522C9.44632 38.1487 9.6736 39.5344 10.6703 40.2499C11.1312 40.5807 11.7102 40.7318 12.309 40.6377C12.404 41.1931 12.7083 41.7129 13.201 42.0667C13.6637 42.399 14.2401 42.5502 14.84 42.4557C14.9353 43.0107 15.2394 43.53 15.7318 43.8836C16.3936 44.3587 17.2165 44.4136 17.9021 44.1207C18.0521 44.5104 18.3129 44.8624 18.6767 45.1236C19.6266 45.8053 20.9351 45.6275 21.6732 44.7442L23.2684 45.6892C24.3234 46.3144 25.6845 45.967 26.3101 44.9108C26.47 44.6408 26.5693 44.3465 26.6056 44.0441L26.6092 44.0463C27.6625 44.6701 29.0268 44.3209 29.6508 43.2678C29.8315 42.9627 29.9305 42.6318 29.9546 42.3002C30.8831 42.5336 31.895 42.1436 32.4074 41.2788C32.5755 40.9951 32.673 40.6886 32.7051 40.3802C33.7002 40.7707 34.8632 40.3933 35.4252 39.4448C35.7275 38.9346 35.813 38.3373 35.6659 37.7627C35.5818 37.434 35.4271 37.1356 35.2148 36.8836L36.0941 36.3699C36.8379 36.6753 37.6867 36.6264 38.3981 36.205L39.7622 35.3968C40.4526 34.9881 40.6807 34.0984 40.2716 33.4078ZM8.42371 35.0661L7.05947 34.2578C6.99883 34.2219 6.9787 34.1433 7.01456 34.0827L12.6237 24.6148C12.6599 24.5539 12.7387 24.5341 12.799 24.57L14.1631 25.3781C14.7693 25.7374 14.959 26.5148 14.6064 27.1099L10.1555 34.6228C9.80025 35.2226 9.02348 35.4213 8.42371 35.0661ZM11.4423 39.1743C11.0403 38.8857 10.9484 38.3265 11.2372 37.9244L12.1195 36.6953C12.4006 36.3037 12.9607 36.1966 13.3695 36.4901C13.7707 36.7781 13.8627 37.3387 13.5748 37.74L12.6924 38.969C12.4044 39.3704 11.8434 39.4622 11.4423 39.1743ZM13.9731 40.9913C13.5719 40.7032 13.4799 40.1424 13.7679 39.7412L14.6502 38.5123C14.6502 38.5123 14.6502 38.5123 14.6502 38.5122C14.6502 38.5122 14.6502 38.5121 14.6503 38.5121L15.6241 37.1558C15.7636 36.9614 15.9704 36.8329 16.2065 36.7943C16.2556 36.7862 16.3047 36.7822 16.3535 36.7822C16.5393 36.7822 16.7201 36.84 16.874 36.9505C17.0683 37.0901 17.1968 37.2968 17.2354 37.5329C17.2742 37.7691 17.2187 38.0061 17.0792 38.2004L15.223 40.786C14.9346 41.1881 14.3753 41.2801 13.9731 40.9913ZM16.5039 42.8081C16.1029 42.5202 16.0108 41.9598 16.2983 41.5586C16.2984 41.5585 16.2985 41.5583 16.2986 41.5581L18.1548 38.9726C18.4426 38.5715 19.0037 38.4794 19.4048 38.7673C19.806 39.0553 19.898 39.6161 19.61 40.0173L18.7853 41.1661C18.7853 41.1661 18.7853 41.1661 18.7852 41.1662L17.7538 42.6029C17.4658 43.0041 16.9052 43.0963 16.5039 42.8081ZM19.4488 44.048C19.0478 43.7601 18.9556 43.2 19.243 42.7988L19.8607 41.9383C20.1487 41.537 20.7097 41.4453 21.1107 41.7331C21.5119 42.021 21.604 42.5819 21.3159 42.9831L20.6987 43.8427C20.4108 44.244 19.8498 44.3361 19.4488 44.048ZM34.2864 38.77C34.0345 39.1952 33.484 39.3361 33.0587 39.0843C32.3387 38.6578 27.6943 35.9062 27.1991 35.6128C26.8844 35.4265 26.4785 35.5303 26.2921 35.8449C26.1058 36.1594 26.2096 36.5655 26.5242 36.7518L30.9541 39.3763L30.9542 39.3764C31.3795 39.6283 31.5214 40.1772 31.2685 40.6041C31.0165 41.0294 30.4657 41.1702 30.0407 40.9185C28.4022 39.9479 27.0718 39.1597 25.6083 38.2926C25.2936 38.1063 24.8877 38.2101 24.7014 38.5246C24.5151 38.8392 24.6189 39.2453 24.9334 39.4316L28.1975 41.3654L28.1982 41.3658C28.6238 41.6185 28.7642 42.1671 28.5119 42.5932C28.2599 43.0185 27.7093 43.1594 27.284 42.9075L25.5322 41.8698C25.5321 41.8697 25.5318 41.8696 25.5316 41.8694C25.5314 41.8693 25.5313 41.8692 25.5311 41.8691L24.2527 41.1117C23.9381 40.9253 23.5321 41.0291 23.3458 41.3437C23.1595 41.6583 23.2633 42.0644 23.5778 42.2507L24.8564 43.0082C24.8566 43.0083 24.8568 43.0085 24.857 43.0086C25.2823 43.2605 25.4241 43.8092 25.1713 44.2362C24.9193 44.6615 24.3687 44.8024 23.9433 44.5505L22.4518 43.667C23.0912 42.6803 22.848 41.3507 21.8828 40.6579C21.5994 40.4545 21.2838 40.3279 20.961 40.2735C21.3034 39.3579 21.0082 38.289 20.1768 37.6922C19.6846 37.3387 19.0953 37.2167 18.5391 37.3038C18.4402 36.7251 18.1237 36.2181 17.6462 35.8754C16.7481 35.2309 15.5276 35.3548 14.7738 36.1174C14.6206 35.8484 14.4091 35.607 14.1416 35.415C13.3953 34.8794 12.4264 34.8744 11.6876 35.3255L11.3843 35.1465L15.5477 28.1188L15.7459 28.2357C16.6213 28.7543 17.6895 28.8624 18.6795 28.4795L19.952 27.9876C20.6801 27.7062 21.0817 27.6878 21.802 28.0277C21.3307 28.5571 21.051 29.2523 21.051 30.0015V32.9366C21.051 33.7162 21.6847 34.3508 22.4637 34.3513H22.4656C23.247 34.3513 23.9818 34.0471 24.5345 33.4948C24.8567 33.1727 25.0945 32.7888 25.2371 32.3698C26.0918 32.8759 33.1536 37.0577 33.9723 37.5427C34.1782 37.6647 34.3243 37.8596 34.3836 38.0914C34.4429 38.323 34.4084 38.5641 34.2864 38.77ZM39.0877 34.2578L37.7234 35.0661C37.1236 35.4212 36.3468 35.2223 35.9917 34.6229L33.9056 31.1016C33.7192 30.787 33.3129 30.6832 32.9986 30.8694C32.6841 31.0557 32.5802 31.4618 32.7664 31.7763L34.8526 35.2977C34.8919 35.364 34.9345 35.427 34.9786 35.4885L34.3986 35.8273C34.2814 35.8967 34.1686 35.9732 34.0608 36.0562L25.0676 30.7305C24.627 30.4697 24.0683 30.7876 24.0683 31.3C24.0614 31.3396 24.1367 32.02 23.5986 32.558C23.2959 32.8604 22.8935 33.0271 22.4656 33.0271C22.4652 33.0271 22.4649 33.0271 22.4645 33.0271C22.415 33.0271 22.3748 32.9863 22.3748 32.9362V30.0011C22.3748 29.2343 22.9023 28.5875 23.6157 28.4069L25.8144 27.8504C26.6121 27.6488 27.0631 28.0748 28.2576 28.4791C29.0869 28.7999 29.9886 28.7801 30.7889 28.4383L31.1884 29.1128C31.3749 29.4275 31.7809 29.5312 32.0954 29.345C32.4099 29.1587 32.5138 28.7526 32.3276 28.4381L31.5406 27.1098C31.1846 26.5088 31.3829 25.7343 31.9838 25.3781L33.3481 24.5699C33.4077 24.5345 33.4865 24.5526 33.5234 24.6148L39.1324 34.0825C39.1686 34.1436 39.1487 34.2217 39.0877 34.2578Z" fill="#404040"/>
<path d="M40.2716 33.4078L34.6626 23.9403C34.2538 23.25 33.3642 23.0218 32.6735 23.4309L31.3092 24.2393C30.2502 24.8666 29.8026 26.1362 30.1662 27.2613C29.7065 27.4278 29.2025 27.4252 28.7385 27.2458C27.6613 26.9069 26.8423 26.2251 25.4898 26.5672C23.1932 27.152 23.263 27.1227 23.0552 27.1939C21.7105 26.4283 20.9022 26.2004 19.4746 26.7527L18.2022 27.2446C17.613 27.4722 16.9639 27.4183 16.4195 27.0957L16.0722 26.891C16.2417 25.8757 15.7914 24.8042 14.838 24.2394C14.838 24.2394 14.838 24.2394 14.8379 24.2393L13.4736 23.4311C12.7849 23.0232 11.8927 23.2515 11.4847 23.9403L5.8755 33.4079C5.46672 34.098 5.69418 34.9879 6.38465 35.3969L7.74889 36.2051C8.16171 36.4497 8.6154 36.566 9.06364 36.566C9.56348 36.566 10.0563 36.4212 10.4776 36.1483L10.762 36.3161L10.1617 37.1522C9.44632 38.1487 9.6736 39.5344 10.6703 40.2499C11.1312 40.5807 11.7102 40.7318 12.309 40.6377C12.404 41.1931 12.7083 41.7129 13.201 42.0667C13.6637 42.399 14.2401 42.5502 14.84 42.4557C14.9353 43.0107 15.2394 43.53 15.7318 43.8836C16.3936 44.3587 17.2165 44.4136 17.9021 44.1207C18.0521 44.5104 18.3129 44.8624 18.6767 45.1236C19.6266 45.8053 20.9351 45.6275 21.6732 44.7442L23.2684 45.6892C24.3234 46.3144 25.6845 45.967 26.3101 44.9108C26.47 44.6408 26.5693 44.3465 26.6056 44.0441L26.6092 44.0463C27.6625 44.6701 29.0268 44.3209 29.6508 43.2678C29.8315 42.9627 29.9305 42.6318 29.9546 42.3002C30.8831 42.5336 31.895 42.1436 32.4074 41.2788C32.5755 40.9951 32.673 40.6886 32.7051 40.3802C33.7002 40.7707 34.8632 40.3933 35.4252 39.4448C35.7275 38.9346 35.813 38.3373 35.6659 37.7627C35.5818 37.434 35.4271 37.1356 35.2148 36.8836L36.0941 36.3699C36.8379 36.6753 37.6867 36.6264 38.3981 36.205L39.7622 35.3968C40.4526 34.9881 40.6807 34.0984 40.2716 33.4078ZM8.42371 35.0661L7.05947 34.2578C6.99883 34.2219 6.9787 34.1433 7.01456 34.0827L12.6237 24.6148C12.6599 24.5539 12.7387 24.5341 12.799 24.57L14.1631 25.3781C14.7693 25.7374 14.959 26.5148 14.6064 27.1099L10.1555 34.6228C9.80025 35.2226 9.02348 35.4213 8.42371 35.0661ZM11.4423 39.1743C11.0403 38.8857 10.9484 38.3265 11.2372 37.9244L12.1195 36.6953C12.4006 36.3037 12.9607 36.1966 13.3695 36.4901C13.7707 36.7781 13.8627 37.3387 13.5748 37.74L12.6924 38.969C12.4044 39.3704 11.8434 39.4622 11.4423 39.1743ZM13.9731 40.9913C13.5719 40.7032 13.4799 40.1424 13.7679 39.7412L14.6502 38.5123C14.6502 38.5123 14.6502 38.5123 14.6502 38.5122C14.6502 38.5122 14.6502 38.5121 14.6503 38.5121L15.6241 37.1558C15.7636 36.9614 15.9704 36.8329 16.2065 36.7943C16.2556 36.7862 16.3047 36.7822 16.3535 36.7822C16.5393 36.7822 16.7201 36.84 16.874 36.9505C17.0683 37.0901 17.1968 37.2968 17.2354 37.5329C17.2742 37.7691 17.2187 38.0061 17.0792 38.2004L15.223 40.786C14.9346 41.1881 14.3753 41.2801 13.9731 40.9913ZM16.5039 42.8081C16.1029 42.5202 16.0108 41.9598 16.2983 41.5586C16.2984 41.5585 16.2985 41.5583 16.2986 41.5581L18.1548 38.9726C18.4426 38.5715 19.0037 38.4794 19.4048 38.7673C19.806 39.0553 19.898 39.6161 19.61 40.0173L18.7853 41.1661C18.7853 41.1661 18.7853 41.1661 18.7852 41.1662L17.7538 42.6029C17.4658 43.0041 16.9052 43.0963 16.5039 42.8081ZM19.4488 44.048C19.0478 43.7601 18.9556 43.2 19.243 42.7988L19.8607 41.9383C20.1487 41.537 20.7097 41.4453 21.1107 41.7331C21.5119 42.021 21.604 42.5819 21.3159 42.9831L20.6987 43.8427C20.4108 44.244 19.8498 44.3361 19.4488 44.048ZM34.2864 38.77C34.0345 39.1952 33.484 39.3361 33.0587 39.0843C32.3387 38.6578 27.6943 35.9062 27.1991 35.6128C26.8844 35.4265 26.4785 35.5303 26.2921 35.8449C26.1058 36.1594 26.2096 36.5655 26.5242 36.7518L30.9541 39.3763L30.9542 39.3764C31.3795 39.6283 31.5214 40.1772 31.2685 40.6041C31.0165 41.0294 30.4657 41.1702 30.0407 40.9185C28.4022 39.9479 27.0718 39.1597 25.6083 38.2926C25.2936 38.1063 24.8877 38.2101 24.7014 38.5246C24.5151 38.8392 24.6189 39.2453 24.9334 39.4316L28.1975 41.3654L28.1982 41.3658C28.6238 41.6185 28.7642 42.1671 28.5119 42.5932C28.2599 43.0185 27.7093 43.1594 27.284 42.9075L25.5322 41.8698C25.5321 41.8697 25.5318 41.8696 25.5316 41.8694C25.5314 41.8693 25.5313 41.8692 25.5311 41.8691L24.2527 41.1117C23.9381 40.9253 23.5321 41.0291 23.3458 41.3437C23.1595 41.6583 23.2633 42.0644 23.5778 42.2507L24.8564 43.0082C24.8566 43.0083 24.8568 43.0085 24.857 43.0086C25.2823 43.2605 25.4241 43.8092 25.1713 44.2362C24.9193 44.6615 24.3687 44.8024 23.9433 44.5505L22.4518 43.667C23.0912 42.6803 22.848 41.3507 21.8828 40.6579C21.5994 40.4545 21.2838 40.3279 20.961 40.2735C21.3034 39.3579 21.0082 38.289 20.1768 37.6922C19.6846 37.3387 19.0953 37.2167 18.5391 37.3038C18.4402 36.7251 18.1237 36.2181 17.6462 35.8754C16.7481 35.2309 15.5276 35.3548 14.7738 36.1174C14.6206 35.8484 14.4091 35.607 14.1416 35.415C13.3953 34.8794 12.4264 34.8744 11.6876 35.3255L11.3843 35.1465L15.5477 28.1188L15.7459 28.2357C16.6213 28.7543 17.6895 28.8624 18.6795 28.4795L19.952 27.9876C20.6801 27.7062 21.0817 27.6878 21.802 28.0277C21.3307 28.5571 21.051 29.2523 21.051 30.0015V32.9366C21.051 33.7162 21.6847 34.3508 22.4637 34.3513H22.4656C23.247 34.3513 23.9818 34.0471 24.5345 33.4948C24.8567 33.1727 25.0945 32.7888 25.2371 32.3698C26.0918 32.8759 33.1536 37.0577 33.9723 37.5427C34.1782 37.6647 34.3243 37.8596 34.3836 38.0914C34.4429 38.323 34.4084 38.5641 34.2864 38.77ZM39.0877 34.2578L37.7234 35.0661C37.1236 35.4212 36.3468 35.2223 35.9917 34.6229L33.9056 31.1016C33.7192 30.787 33.3129 30.6832 32.9986 30.8694C32.6841 31.0557 32.5802 31.4618 32.7664 31.7763L34.8526 35.2977C34.8919 35.364 34.9345 35.427 34.9786 35.4885L34.3986 35.8273C34.2814 35.8967 34.1686 35.9732 34.0608 36.0562L25.0676 30.7305C24.627 30.4697 24.0683 30.7876 24.0683 31.3C24.0614 31.3396 24.1367 32.02 23.5986 32.558C23.2959 32.8604 22.8935 33.0271 22.4656 33.0271C22.4652 33.0271 22.4649 33.0271 22.4645 33.0271C22.415 33.0271 22.3748 32.9863 22.3748 32.9362V30.0011C22.3748 29.2343 22.9023 28.5875 23.6157 28.4069L25.8144 27.8504C26.6121 27.6488 27.0631 28.0748 28.2576 28.4791C29.0869 28.7999 29.9886 28.7801 30.7889 28.4383L31.1884 29.1128C31.3749 29.4275 31.7809 29.5312 32.0954 29.345C32.4099 29.1587 32.5138 28.7526 32.3276 28.4381L31.5406 27.1098C31.1846 26.5088 31.3829 25.7343 31.9838 25.3781L33.3481 24.5699C33.4077 24.5345 33.4865 24.5526 33.5234 24.6148L39.1324 34.0825C39.1686 34.1436 39.1487 34.2217 39.0877 34.2578Z" stroke="#404040" stroke-width="0.2" mask="url(#path-5-outside-1)"/>
</svg>
