<svg width="43" height="43" viewBox="0 0 43 43" fill="none" xmlns="http://www.w3.org/2000/svg">
<path fill-rule="evenodd" clip-rule="evenodd" d="M35.6126 8.41122C35.6123 8.40203 35.6119 8.39284 35.6113 8.38366C35.6087 8.34724 35.6051 8.31148 35.5978 8.27605C35.5978 8.27605 35.5978 8.27605 35.5978 8.27573C35.5906 8.24029 35.5805 8.20519 35.569 8.17107C35.566 8.16254 35.5631 8.15401 35.5598 8.14548C35.5476 8.11301 35.5339 8.08118 35.5181 8.05035C35.5171 8.04871 35.5165 8.04707 35.5155 8.04543C35.4984 8.01328 35.4788 7.98276 35.4574 7.95291C35.4522 7.94537 35.4466 7.93815 35.441 7.9306C35.4184 7.90108 35.3948 7.87254 35.3682 7.84596L27.7683 0.246048C27.7417 0.219474 27.7132 0.195854 27.6836 0.173217C27.6761 0.16764 27.6685 0.161735 27.661 0.156486C27.6311 0.135162 27.601 0.115478 27.5691 0.098747C27.5668 0.0974348 27.5646 0.0967787 27.5626 0.0954664C27.5324 0.0797194 27.5009 0.0662687 27.4691 0.0541304C27.4602 0.0508498 27.4517 0.0478972 27.4425 0.0449447C27.4084 0.0334625 27.3739 0.0232925 27.3382 0.0160751C27.3379 0.0160751 27.3375 0.0160751 27.3375 0.0160751C27.3024 0.00918577 27.2667 0.00524901 27.2306 0.00262451C27.2214 0.00229645 27.2122 0.00164031 27.203 0.00131225C27.1935 0.000984194 27.184 0 27.1745 0H8.14648C7.6826 0 7.30664 0.375961 7.30664 0.839842V36.7871C7.30664 37.2509 7.6826 37.6269 8.14648 37.6269H20.7907V42.1601C20.7907 42.4655 20.9567 42.747 21.2241 42.8949C21.4918 43.0429 21.8182 43.034 22.077 42.8716L25.2757 40.8649L28.4743 42.8716C28.6104 42.9569 28.7656 42.9999 28.9208 42.9999C29.0605 42.9999 29.2006 42.9651 29.3272 42.8953C29.5946 42.7473 29.7606 42.4658 29.7606 42.1601V37.6269H34.7741C35.238 37.6269 35.6139 37.2509 35.6139 36.7871V8.43976C35.6139 8.43024 35.6129 8.42073 35.6126 8.41122ZM28.0143 2.8676L32.7466 7.59992H28.0143V2.8676ZM20.3764 25.9403C20.3173 25.7799 20.2212 25.5177 20.2189 25.4105C20.2845 25.3291 20.5122 25.1851 20.6516 25.0972C20.9508 24.9082 21.29 24.6937 21.5361 24.3584C21.7844 24.0195 21.8854 23.6281 21.9747 23.283C22.0137 23.1321 22.0767 22.8883 22.1305 22.7961C22.16 22.7899 22.222 22.781 22.3385 22.781C22.432 22.781 22.5367 22.7863 22.6475 22.7919C22.7748 22.7981 22.9061 22.8047 23.0432 22.8047C23.3457 22.8047 23.5897 22.7705 23.8112 22.6967C24.198 22.5681 24.5073 22.3191 24.7803 22.0993C24.9312 21.9779 25.1838 21.7745 25.2717 21.7621C25.3678 21.7745 25.6201 21.9779 25.771 22.0993C26.044 22.3191 26.3537 22.5681 26.7405 22.6967C26.9619 22.7705 27.2057 22.8047 27.5085 22.8047C27.6453 22.8047 27.7768 22.7981 27.9038 22.7919C28.0147 22.7863 28.1193 22.781 28.2131 22.781C28.3296 22.781 28.3913 22.7896 28.4211 22.7961C28.4749 22.8883 28.5379 23.1321 28.5766 23.283C28.6659 23.6281 28.7672 24.0195 29.0156 24.3584C29.2613 24.6937 29.6005 24.9079 29.9 25.0972C30.0391 25.1854 30.2668 25.3291 30.3324 25.4105C30.3301 25.5177 30.234 25.7799 30.1753 25.9403C30.0503 26.2805 29.9089 26.6663 29.9089 27.0938C29.9089 27.5212 30.0503 27.907 30.175 28.2476C30.234 28.408 30.3301 28.6701 30.3324 28.7774C30.2668 28.8587 30.0391 29.0024 29.9 29.0907C29.6005 29.2797 29.2613 29.4942 29.0156 29.8295C28.7672 30.1684 28.6659 30.5598 28.5766 30.9049C28.5379 31.0555 28.4746 31.2995 28.4211 31.3917C28.3913 31.398 28.3296 31.4068 28.2131 31.4068C28.1193 31.4068 28.0147 31.4016 27.9038 31.396C27.7768 31.3898 27.6453 31.3832 27.5085 31.3832C27.2057 31.3832 26.9619 31.4173 26.7405 31.4911C26.3537 31.6197 26.044 31.8691 25.771 32.0885C25.6224 32.2086 25.3744 32.4077 25.2757 32.4254C25.1769 32.4077 24.9292 32.2086 24.7806 32.0885C24.5073 31.8691 24.198 31.6197 23.8112 31.4911C23.5897 31.4173 23.3457 31.3832 23.0432 31.3832C22.9064 31.3832 22.7748 31.3898 22.6475 31.396C22.537 31.4016 22.4323 31.4068 22.3385 31.4068C22.222 31.4068 22.1604 31.398 22.1305 31.3917C22.0767 31.2995 22.0137 31.0558 21.9747 30.9049C21.8858 30.5598 21.7844 30.1684 21.5361 29.8295C21.2903 29.4942 20.9511 29.2797 20.6516 29.0907C20.5125 29.0028 20.2848 28.8587 20.2192 28.7774C20.2215 28.6704 20.3176 28.408 20.3764 28.2476C20.5013 27.9074 20.6427 27.5216 20.6427 27.0941C20.6427 26.6663 20.501 26.2805 20.3764 25.9403ZM28.0809 40.6418L25.7221 39.1619C25.4492 38.991 25.1021 38.991 24.8292 39.1619L22.4704 40.6418V33.0839C22.5596 33.0812 22.6472 33.078 22.7322 33.0737C22.8434 33.0678 22.9484 33.0625 23.0432 33.0625C23.1921 33.0625 23.2558 33.0763 23.2804 33.0845C23.3804 33.118 23.5727 33.2728 23.7272 33.3972C24.1192 33.7128 24.6071 34.1055 25.2757 34.1055C25.9442 34.1055 26.4321 33.7128 26.8241 33.3972C26.9786 33.2728 27.1709 33.118 27.2706 33.0849C27.2955 33.0767 27.3592 33.0629 27.5081 33.0629C27.6029 33.0629 27.7079 33.0681 27.8191 33.0737C27.9041 33.078 27.9917 33.0816 28.0806 33.0839V40.6418H28.0809ZM29.7606 35.9472V32.4071C30.0103 32.0679 30.1146 31.6663 30.2028 31.3251C30.2491 31.146 30.3124 30.9009 30.3701 30.8225C30.4276 30.7438 30.6411 30.609 30.797 30.5105C31.2103 30.2494 31.7247 29.9243 31.9291 29.3095C32.1312 28.7029 31.9209 28.1298 31.752 27.6692C31.6752 27.4602 31.5882 27.223 31.5882 27.0938C31.5882 26.9645 31.6752 26.7276 31.752 26.5187C31.9209 26.0581 32.1312 25.4846 31.9291 24.878C31.7247 24.2636 31.2103 23.9385 30.797 23.6773C30.6411 23.5789 30.4276 23.4437 30.3701 23.3657C30.3124 23.2869 30.2491 23.0419 30.2028 22.8627C30.0821 22.3952 29.9319 21.8133 29.4175 21.436C29.008 21.1361 28.534 21.1014 28.2128 21.1014C28.077 21.1014 27.9458 21.1079 27.8191 21.1145C27.7079 21.1201 27.6029 21.1253 27.5085 21.1253C27.3592 21.1253 27.2955 21.1115 27.2709 21.1033C27.1712 21.0702 26.979 20.9153 26.8244 20.7907C26.4321 20.4754 25.9442 20.0827 25.2757 20.0827C24.6074 20.0827 24.1192 20.4754 23.7272 20.7907C23.5727 20.915 23.3804 21.0702 23.2807 21.1033C23.2561 21.1115 23.1921 21.1253 23.0432 21.1253C22.9487 21.1253 22.8434 21.1201 22.7322 21.1142C22.6055 21.1079 22.4746 21.1014 22.3385 21.1014C22.0177 21.1014 21.5436 21.1361 21.1345 21.436C20.6198 21.8133 20.4692 22.3952 20.3485 22.8627C20.3022 23.0419 20.2389 23.2869 20.1815 23.3653C20.1237 23.4437 19.9102 23.5789 19.7543 23.6773C19.341 23.9385 18.8269 24.2636 18.6222 24.878C18.4201 25.4849 18.6304 26.0581 18.7994 26.5187C18.8761 26.7276 18.9631 26.9645 18.9631 27.0938C18.9631 27.223 18.8761 27.4602 18.7994 27.6692C18.6304 28.1298 18.4201 28.7029 18.6222 29.3098C18.8269 29.9243 19.3413 30.2494 19.7543 30.5105C19.9105 30.609 20.1237 30.7441 20.1815 30.8225C20.2389 30.9009 20.3022 31.146 20.3485 31.3251C20.4367 31.6663 20.5414 32.0682 20.791 32.4071V35.9472H8.98632V1.67968H26.3346V8.43976C26.3346 8.90364 26.7106 9.2796 27.1745 9.2796H33.9342V35.9472H29.7606Z" fill="#404040"/>
<path fill-rule="evenodd" clip-rule="evenodd" d="M12.25 9.27963H23.0702C23.5338 9.27963 23.9101 8.90367 23.9101 8.43979C23.9101 7.97591 23.5338 7.59995 23.0702 7.59995H12.25C11.7861 7.59995 11.4102 7.97591 11.4102 8.43979C11.4102 8.90367 11.7864 9.27963 12.25 9.27963Z" fill="#404040"/>
<path fill-rule="evenodd" clip-rule="evenodd" d="M30.764 11.8392H12.25C11.7861 11.8392 11.4102 12.2151 11.4102 12.679C11.4102 13.1429 11.7861 13.5189 12.25 13.5189H30.764C31.2278 13.5189 31.6038 13.1429 31.6038 12.679C31.6038 12.2151 31.2278 11.8392 30.764 11.8392Z" fill="#404040"/>
<path fill-rule="evenodd" clip-rule="evenodd" d="M27.4046 16.0784H12.25C11.7861 16.0784 11.4102 16.4547 11.4102 16.9182C11.4102 17.3821 11.7861 17.7581 12.25 17.7581H27.4046C27.8685 17.7581 28.2444 17.3821 28.2444 16.9182C28.2444 16.4547 27.8685 16.0784 27.4046 16.0784Z" fill="#404040"/>
<path fill-rule="evenodd" clip-rule="evenodd" d="M30.7642 16.0784C30.3016 16.0784 29.9243 16.4557 29.9243 16.9182C29.9243 17.3808 30.3016 17.7581 30.7642 17.7581C31.2271 17.7581 31.604 17.3808 31.604 16.9182C31.604 16.4557 31.2271 16.0784 30.7642 16.0784Z" fill="#404040"/>
</svg>
