<svg width="20" height="20" viewBox="0 0 20 20" fill="none" xmlns="http://www.w3.org/2000/svg">
<path d="M2.92969 20H17.0703C18.6858 20 20 18.6858 20 17.0703V2.92969C20 1.31424 18.6858 0 17.0703 0H2.92969C1.31424 0 0 1.31424 0 2.92969V17.0703C0 18.6858 1.31424 20 2.92969 20ZM1.17188 2.92969C1.17188 1.96045 1.96045 1.17188 2.92969 1.17188H17.0703C18.0396 1.17188 18.8281 1.96045 18.8281 2.92969V17.0703C18.8281 18.0396 18.0396 18.8281 17.0703 18.8281H2.92969C1.96045 18.8281 1.17188 18.0396 1.17188 17.0703V2.92969Z" fill="#3CCB78"/>
<path d="M5.52937 13.2913H7.30664V19.4993C7.30664 19.7753 7.54309 19.9993 7.83601 19.9993L10.6643 20C10.9572 20 11.1936 19.7753 11.1936 19.5V13.292H12.8784C13.1452 13.292 13.3704 13.104 13.4036 12.854L13.7551 10.1873C13.7946 9.89 13.5483 9.62533 13.2299 9.62533H11.1936C11.2734 7.978 10.8866 7.49067 12.0209 7.49067C12.7888 7.404 14 7.77133 14 6.99067V4.606C14 4.356 13.8045 4.14467 13.5426 4.11067C13.321 4.082 12.4451 4 11.3588 4C6.41095 4 7.42946 9.18133 7.30735 9.62467H5.52937C5.23716 9.62467 5 9.84867 5 10.1247V12.7913C5 13.0673 5.23716 13.2913 5.52937 13.2913ZM6.05874 10.6253H7.83601C8.12823 10.6253 8.36538 10.4013 8.36538 10.1253V8.02467C8.36538 6.10267 9.45589 5.00067 11.3581 5.00067C11.9778 5.00067 12.5481 5.02933 12.9406 5.05867V6.49133C12.6568 6.628 10.1342 5.902 10.1342 8.28933V10.126C10.1342 10.402 10.3713 10.626 10.6636 10.626H12.63L12.4098 12.2927H10.6636C10.3713 12.2927 10.1342 12.5167 10.1342 12.7927V19H8.36609V12.792C8.36609 12.516 8.12893 12.292 7.83672 12.292H6.05874V10.6253Z" fill="#3CCB78"/>
</svg>
