<?xml version="1.0" encoding="UTF-8" standalone="no"?>
<!DOCTYPE svg PUBLIC "-//W3C//DTD SVG 1.1//EN" "http://www.w3.org/Graphics/SVG/1.1/DTD/svg11.dtd">
<svg version="1.1" xmlns="http://www.w3.org/2000/svg" xmlns:xlink="http://www.w3.org/1999/xlink" preserveAspectRatio="xMidYMid meet" viewBox="190.45005370569285 122.88829215896885 171.9914070891514 171.9914070891515" width="120" height="120"><defs><path d="M359.44 207.88C359.44 254.24 321.8 291.88 275.45 291.88C229.09 291.88 191.45 254.24 191.45 207.88C191.45 161.53 229.09 123.89 275.45 123.89C321.8 123.89 359.44 161.53 359.44 207.88Z" id="a5SoIAumb"></path><path d="M289.3 233.44C289.3 234.15 289.82 234.74 290.51 234.79C291.24 234.84 291.87 234.29 291.92 233.56C291.92 233.56 291.92 233.56 291.92 233.55C292.03 232.17 292.58 225.28 293.56 212.87L311.23 212.87L311.23 208.48L293.91 208.48L294.6 199.71L311.23 199.71L311.23 195.32L294.94 195.32L295.64 186.55C308.68 186.55 315.92 186.55 317.37 186.55C318.82 186.55 320 187.73 320 189.18C320 189.18 320 189.18 320 189.18C320 195.23 320 243.66 320 249.71C320 251.17 318.82 252.34 317.37 252.34C317.37 252.34 317.37 252.34 317.37 252.34C314.03 252.34 297.37 252.34 267.36 252.34C267.36 239.71 267.36 232.69 267.36 231.29C267.36 230.81 266.97 230.41 266.49 230.41C265.35 230.41 256.22 230.41 255.08 230.41C254.6 230.41 254.2 230.81 254.2 231.29C254.2 232.69 254.2 239.71 254.2 252.34C242.62 252.34 236.19 252.34 234.9 252.34C233.45 252.34 232.27 251.17 232.27 249.71C232.27 249.71 232.27 249.71 232.27 249.71C232.27 240.94 232.27 170.76 232.27 161.99C232.27 161.02 233.06 160.23 234.03 160.23C234.2 160.23 235.08 160.23 236.66 160.23C236.66 158.65 236.66 157.77 236.66 157.6C236.66 156.63 237.45 155.84 238.41 155.84C242.89 155.84 278.68 155.84 283.15 155.84C284.12 155.84 284.91 156.63 284.91 157.6C284.91 157.77 284.91 158.65 284.91 160.23C286.49 160.23 287.37 160.23 287.54 160.23C288.51 160.23 289.3 161.02 289.3 161.99C289.3 163.62 289.3 171.81 289.3 186.55C289.3 214.68 289.3 230.31 289.3 233.44ZM309.47 177.78C310.44 177.78 311.23 178.57 311.23 179.53C311.23 179.71 311.23 180.58 311.23 182.16L295.99 182.16L296.34 177.78C304.22 177.78 308.6 177.78 309.47 177.78ZM247.62 217.25L256.4 217.25L256.4 190.94L247.62 190.94L247.62 217.25ZM265.17 217.25L273.94 217.25L273.94 190.94L265.17 190.94L265.17 217.25ZM247.62 182.16L256.4 182.16L256.4 169L247.62 169L247.62 182.16ZM265.17 182.16L273.94 182.16L273.94 169L265.17 169L265.17 182.16ZM298.07 226.03L311.23 226.03L311.23 221.64L298.07 221.64L298.07 226.03Z" id="aqCtQK9xW"></path></defs><g><g><use xlink:href="#a5SoIAumb" opacity="1" fill="#fc4747" fill-opacity="1"></use></g><g><use xlink:href="#aqCtQK9xW" opacity="1" fill="#ffffff" fill-opacity="1"></use><g><use xlink:href="#aqCtQK9xW" opacity="1" fill-opacity="0" stroke="#000000" stroke-width="1" stroke-opacity="0"></use></g></g></g></svg>