<svg width="48" height="48" viewBox="0 0 48 48" fill="none" xmlns="http://www.w3.org/2000/svg">
<path d="M44.25 35.25C44.25 30.6007 41.2103 26.6535 37.0155 25.2765C38.6587 24.2055 39.75 22.3538 39.75 20.25C39.75 16.9417 37.0583 14.25 33.75 14.25C33.4328 14.25 33.1237 14.2823 32.82 14.3295C32.862 14.208 32.9153 14.0895 32.952 13.9665L34.5 13.602V8.9355L32.9535 8.571C32.772 7.962 32.5282 7.374 32.2245 6.81375L33.0608 5.4615L29.7885 2.1885L28.4363 3.0255C27.8768 2.72325 27.2887 2.47875 26.6782 2.2965L26.3145 0.75H21.6855L21.3218 2.2965C20.712 2.47875 20.1232 2.7225 19.5637 3.0255L18.2115 2.1885L14.9393 5.4615L15.7755 6.81375C15.4725 7.374 15.2288 7.962 15.0465 8.571L13.5 8.93625V13.6035L15.0472 13.968C15.084 14.0903 15.1372 14.2088 15.1793 14.3302C14.8763 14.2823 14.5673 14.25 14.25 14.25C10.9418 14.25 8.25 16.9417 8.25 20.25C8.25 22.3538 9.34125 24.2055 10.9845 25.2765C6.78975 26.6535 3.75 30.6007 3.75 35.25V38.25H15.3953C14.2043 39.9525 13.5 42.0195 13.5 44.25V47.25H34.5V44.25C34.5 42.0195 33.7957 39.9525 32.6047 38.25H44.25V35.25ZM35.25 27C35.25 28.2195 34.563 29.25 33.75 29.25C32.937 29.25 32.25 28.2195 32.25 27C32.25 26.787 32.28 26.5762 32.325 26.367C32.7945 26.292 33.27 26.25 33.75 26.25C34.2367 26.25 34.7115 26.2995 35.1772 26.3745C35.2208 26.5815 35.25 26.79 35.25 27ZM24 33.75C21.5182 33.75 19.5 31.7318 19.5 29.25C19.5 26.7682 21.5182 24.75 24 24.75C26.4818 24.75 28.5 26.7682 28.5 29.25C28.5 31.7318 26.4818 33.75 24 33.75ZM18.162 27.1485C18.2257 27.1793 18.2903 27.2078 18.3533 27.24C18.129 27.87 18 28.5443 18 29.25C18 29.5492 18.0293 29.8418 18.072 30.1297L17.073 32.328L15.255 30.0563L18.162 27.1485ZM24 23.25C21.9315 23.25 20.1045 24.3022 19.0253 25.8997C18.5393 25.6515 18.0345 25.4452 17.517 25.2757C19.1595 24.204 20.25 22.353 20.25 20.25C20.25 20.1105 20.2388 19.974 20.229 19.8375C20.5845 19.9943 20.949 20.13 21.3218 20.2418L21.6855 21.7882H26.3145L26.6782 20.2418C27.051 20.13 27.4155 19.9943 27.771 19.8375C27.7612 19.974 27.75 20.1105 27.75 20.25C27.75 22.3538 28.8405 24.204 30.483 25.2757C29.9663 25.4445 29.4615 25.6523 28.9755 25.9005C27.8962 24.303 26.0685 23.25 24 23.25ZM38.25 20.25C38.25 22.7318 36.2318 24.75 33.75 24.75C31.2682 24.75 29.25 22.7318 29.25 20.25C29.25 17.7682 31.2682 15.75 33.75 15.75C36.2318 15.75 38.25 17.7682 38.25 20.25ZM16.3822 13.161L16.2728 12.7147L15 12.4147V10.1227L16.272 9.8235L16.3815 9.37725C16.5705 8.60625 16.875 7.869 17.289 7.188L17.5267 6.79575L16.8383 5.6835L18.432 4.08975L19.5443 4.77825L19.9365 4.53975C20.616 4.12725 21.3533 3.82125 22.1265 3.63225L22.5728 3.52275L22.8735 2.25H25.1265L25.4258 3.522L25.872 3.6315C26.6452 3.82125 27.3825 4.1265 28.062 4.539L28.4543 4.7775L29.5665 4.089L31.1603 5.68275L30.4725 6.79575L30.7102 7.188C31.1242 7.869 31.4288 8.60625 31.6178 9.37725L31.7273 9.8235L33 10.1235V12.4155L31.728 12.7147L31.6185 13.161C31.467 13.7812 31.221 14.3857 30.9098 14.967C29.7195 15.6097 28.77 16.6432 28.2337 17.8942L28.0627 17.9977C27.3832 18.4102 26.646 18.7163 25.8728 18.9053L25.4265 19.0148L25.1272 20.2868H22.8743L22.575 19.014L22.1287 18.9045C21.357 18.7155 20.6197 18.4102 19.9387 17.997L19.7677 17.8935C19.2315 16.6417 18.282 15.6083 17.0917 14.9655C16.7797 14.3858 16.5338 13.7812 16.3822 13.161ZM9.75 20.25C9.75 17.7682 11.7682 15.75 14.25 15.75C16.7318 15.75 18.75 17.7682 18.75 20.25C18.75 22.7318 16.7318 24.75 14.25 24.75C11.7682 24.75 9.75 22.7318 9.75 20.25ZM16.6207 26.5687L14.25 28.9395L11.886 26.5755C12.6405 26.3692 13.431 26.25 14.25 26.25C15.0562 26.25 15.8527 26.3595 16.6207 26.5687ZM13.245 30.0555L11.427 32.3273L9.333 27.7207C9.6555 27.5092 9.9945 27.3233 10.344 27.1538L13.245 30.0555ZM5.25 35.25C5.25 32.6565 6.35925 30.3225 8.121 28.6785L11.073 35.1727L14.25 31.2008L17.427 35.1727L18.7792 32.1975C19.2555 33.0375 19.9275 33.7515 20.7337 34.2772C19.1888 34.7842 17.802 35.6385 16.665 36.7507H9V32.2507H7.5V36.7507H5.25V35.25ZM24 35.25C25.3035 35.25 26.5395 35.5343 27.6593 36.0353L24 44.5913L20.3407 36.0345C21.4605 35.5343 22.6965 35.25 24 35.25ZM15 44.25C15 41.1285 16.5982 38.3753 19.0185 36.7605L22.863 45.75H18.75V41.25H17.25V45.75H15V44.25ZM33 45.75H30.75V41.25H29.25V45.75H25.137L28.9815 36.7605C31.4017 38.3753 33 41.1285 33 44.25V45.75ZM42.75 36.75H40.5V32.25H39V36.75H31.3342C30.1973 35.6377 28.8097 34.7835 27.2655 34.2765C28.9088 33.2055 30 31.3538 30 29.25C30 28.545 29.871 27.8707 29.6467 27.2415C30.0105 27.0547 30.3862 26.8928 30.771 26.7585C30.7665 26.8388 30.75 26.919 30.75 27C30.75 29.0677 32.0955 30.75 33.75 30.75C35.4045 30.75 36.75 29.0677 36.75 27C36.75 26.922 36.7342 26.8455 36.7298 26.7675C40.23 28.0012 42.75 31.3328 42.75 35.25V36.75Z" fill="#404040"/>
<path d="M24 14.25C25.6545 14.25 27 12.9045 27 11.25C27 9.5955 25.6545 8.25 24 8.25C22.3455 8.25 21 9.5955 21 11.25C21 12.9045 22.3455 14.25 24 14.25ZM24 9.75C24.8273 9.75 25.5 10.4227 25.5 11.25C25.5 12.0773 24.8273 12.75 24 12.75C23.1727 12.75 22.5 12.0773 22.5 11.25C22.5 10.4227 23.1727 9.75 24 9.75Z" fill="#404040"/>
<path d="M24 17.25C27.3082 17.25 30 14.5582 30 11.25C30 7.94175 27.3082 5.25 24 5.25C20.6918 5.25 18 7.94175 18 11.25C18 14.5582 20.6918 17.25 24 17.25ZM24 6.75C26.4818 6.75 28.5 8.76825 28.5 11.25C28.5 13.7318 26.4818 15.75 24 15.75C21.5182 15.75 19.5 13.7318 19.5 11.25C19.5 8.76825 21.5182 6.75 24 6.75Z" fill="#404040"/>
</svg>
