<svg width="46" height="46" viewBox="0 0 46 46" fill="none" xmlns="http://www.w3.org/2000/svg">
<path d="M31.1242 18.6336L30.6204 17.2874C30.1697 17.4563 29.7126 17.6108 29.2612 17.7474L29.6767 19.123C30.1575 18.9779 30.6448 18.8133 31.1242 18.6336Z" fill="#404040"/>
<path d="M26.5938 21.7638V19.8318C27.1271 19.7462 27.6625 19.6413 28.1937 19.5191L27.8695 18.1183C27.1767 18.2793 26.4744 18.4058 25.7823 18.497L25.1562 18.5797V21.7645C25.1562 21.9571 25.1606 22.149 25.1706 22.3402L26.6067 22.2669C26.5981 22.0994 26.5938 21.9327 26.5938 21.7638Z" fill="#404040"/>
<path d="M13.6562 9.34375C11.2779 9.34375 9.34375 11.2779 9.34375 13.6562C9.34375 16.0346 11.2779 17.9688 13.6562 17.9688C16.0346 17.9688 17.9688 16.0346 17.9688 13.6562C17.9688 11.2779 16.0346 9.34375 13.6562 9.34375ZM13.6562 16.5312C12.0707 16.5312 10.7812 15.2418 10.7812 13.6562C10.7812 12.0707 12.0707 10.7812 13.6562 10.7812C15.2418 10.7812 16.5312 12.0707 16.5312 13.6562C16.5312 15.2418 15.2418 16.5312 13.6562 16.5312Z" fill="#404040"/>
<path d="M32.6873 13.5039L32.3445 13.3177L32.0016 13.5039C29.2502 14.9946 26.1359 15.7931 22.9957 15.8118L22.2812 15.8161V21.7638C22.2812 28.0003 26.2265 33.6195 32.0987 35.7456L32.3438 35.834L32.5888 35.7456C38.461 33.6195 42.4062 28.0003 42.4062 21.7638V15.8161L41.6918 15.8118C38.5538 15.7931 35.4401 14.9946 32.6873 13.5039ZM40.9688 21.7638C40.9688 27.3103 37.5137 32.3164 32.3438 34.3023C27.1738 32.3157 23.7188 27.3096 23.7188 21.7638V17.232C26.7217 17.1091 29.6822 16.3257 32.3445 14.9486C35.0074 16.3257 37.9672 17.1091 40.9688 17.232V21.7638Z" fill="#404040"/>
<path d="M29.469 22.7024L26.2964 25.875L30.9065 30.4851L39.829 21.5625L36.6565 18.39L30.9065 24.1399L29.469 22.7024ZM37.7964 21.5625L30.9065 28.4524L28.329 25.875L29.469 24.7351L30.9065 26.1726L36.6565 20.4226L37.7964 21.5625Z" fill="#404040"/>
<path d="M45.2812 12.9375H41.8104C38.5803 12.9375 35.4531 11.9909 32.7383 10.1804L32.3164 9.93528L31.9204 10.1991C30.2838 11.2908 28.4819 12.0642 26.5938 12.5055V10.9308L24.6998 10.4851C24.4612 9.65209 24.1284 8.84997 23.7073 8.09025L24.7322 6.43497L20.8775 2.58031L19.2222 3.60525C18.4625 3.18406 17.6604 2.85128 16.8274 2.61266L16.3818 0.71875H10.9307L10.4851 2.61266C9.65209 2.85128 8.84997 3.18406 8.09025 3.60525L6.43497 2.58031L2.58031 6.43497L3.60525 8.09025C3.18406 8.84997 2.85128 9.65209 2.61266 10.4851L0.71875 10.9308V16.3818L2.61266 16.8274C2.85128 17.6604 3.18406 18.4625 3.60525 19.2223L2.58031 20.8775L6.43497 24.7322L8.09025 23.7073C8.84997 24.1284 9.65209 24.4612 10.4851 24.6998L10.9307 26.5938H16.3818L16.8274 24.6998C17.6604 24.4612 18.4625 24.1284 19.2222 23.7073L19.5536 23.9121C19.9388 27.0193 21.1334 29.9338 22.9641 32.379L20.5462 41.2448L24.0954 40.3571L26.7813 44.8342L29.1913 37.6043C30.1286 38.0779 31.1111 38.479 32.1411 38.7823L32.3438 38.8427L32.5464 38.783C33.5764 38.4797 34.5589 38.0787 35.4962 37.605L37.9062 44.8349L40.5921 40.3578L44.1413 41.2455L41.7234 32.3797C43.971 29.3768 45.2812 25.6723 45.2812 21.7638V12.9375ZM19.2381 22.0268L18.8622 22.2554C17.9889 22.7844 17.0459 23.1761 16.0569 23.4176L15.6285 23.5225L15.2432 25.1563H12.0693L11.6847 23.5225L11.2563 23.4176C10.2673 23.1761 9.32434 22.7844 8.45106 22.2554L8.07516 22.0268L6.64772 22.9102L4.40306 20.6655L5.28641 19.2381L5.05784 18.8622C4.52884 17.9889 4.13713 17.0459 3.89563 16.0569L3.79069 15.6285L2.15625 15.2433V12.0693L3.78997 11.6847L3.89491 11.2563C4.13641 10.2673 4.52812 9.32434 5.05712 8.45106L5.28569 8.07516L4.40234 6.647L6.647 4.40234L8.07444 5.28569L8.45034 5.05713C9.32362 4.52813 10.2666 4.13641 11.2556 3.89491L11.684 3.78997L12.0693 2.15625H15.2432L15.6278 3.78997L16.0562 3.89491C17.0452 4.13641 17.9882 4.52813 18.8614 5.05713L19.2373 5.28569L20.6648 4.40234L22.9094 6.647L22.0261 8.07444L22.2547 8.45034C22.7837 9.32363 23.1754 10.2666 23.4169 11.2556L23.5218 11.684L25.1562 12.0693V12.7751C24.4052 12.88 23.6447 12.9375 22.8771 12.9375H22.2446C21.8773 8.51719 18.17 5.03125 13.6562 5.03125C8.90028 5.03125 5.03125 8.90028 5.03125 13.6563C5.03125 18.4122 8.90028 22.2813 13.6562 22.2813C15.7981 22.2813 17.8394 21.477 19.4062 20.0761V21.7645C19.4062 21.891 19.4192 22.0153 19.4221 22.1411L19.2381 22.0268ZM19.4062 12.9375V17.9537C18.05 19.7635 15.921 20.8438 13.6562 20.8438C9.69306 20.8438 6.46875 17.6194 6.46875 13.6563C6.46875 9.69306 9.69306 6.46875 13.6562 6.46875C17.3765 6.46875 20.4456 9.31069 20.8071 12.9375H19.4062ZM26.4062 41.4151L24.7796 38.7047L22.5788 39.2545L24.0875 33.7216C25.203 34.9442 26.4881 36.0137 27.9141 36.8906L26.4062 41.4151ZM42.1087 39.2545L39.9079 38.7047L38.2813 41.4151L36.7734 36.8906C38.1994 36.0137 39.4845 34.9442 40.6 33.7216L42.1087 39.2545ZM43.8438 21.7638C43.8438 28.8751 39.1259 35.2511 32.3438 37.3434C25.5616 35.2511 20.8438 28.8751 20.8438 21.7638V14.375H22.8771C26.2358 14.375 29.4918 13.4342 32.343 11.638C35.1807 13.4306 38.4445 14.375 41.8104 14.375H43.8438V21.7638Z" fill="#404040"/>
</svg>
