<svg width="47" height="47" viewBox="0 0 47 47" fill="none" xmlns="http://www.w3.org/2000/svg">
<path d="M32.1137 11.8984C30.466 11.8984 29.1255 13.2389 29.1255 14.8866C29.1255 16.5343 30.466 17.8748 32.1137 17.8748C33.7614 17.8748 35.1019 16.5342 35.1019 14.8866C35.1019 13.2389 33.7615 11.8984 32.1137 11.8984ZM32.1137 16.1171C31.4352 16.1171 30.8832 15.5652 30.8832 14.8866C30.8832 14.2081 31.4352 13.6562 32.1137 13.6562C32.7922 13.6562 33.3442 14.2081 33.3442 14.8866C33.3442 15.5652 32.7922 16.1171 32.1137 16.1171Z" fill="#404040" stroke="white" stroke-width="0.2"/>
<path d="M19.285 28.2488C19.1215 28.0852 18.8947 27.9921 18.6636 27.9921C18.4324 27.9921 18.2057 28.0853 18.0422 28.2488C17.8787 28.4131 17.7847 28.6398 17.7847 28.871C17.7847 29.1022 17.8787 29.328 18.0422 29.4924C18.2057 29.6558 18.4324 29.7499 18.6636 29.7499C18.8947 29.7499 19.1215 29.6559 19.285 29.4924C19.4484 29.328 19.5425 29.1022 19.5425 28.871C19.5425 28.6389 19.4484 28.4131 19.285 28.2488Z" fill="#404040" stroke="white" stroke-width="0.2"/>
<path d="M9.08184 44.4931C8.91845 44.3296 8.69248 44.2355 8.46045 44.2355C8.2293 44.2355 8.00254 44.3296 7.83906 44.4931C7.67559 44.6565 7.58154 44.8833 7.58154 45.1144C7.58154 45.3456 7.67559 45.5724 7.83906 45.7358C8.00254 45.8992 8.2293 45.9934 8.46045 45.9934C8.6916 45.9934 8.91836 45.8993 9.08184 45.7358C9.24619 45.5724 9.33936 45.3456 9.33936 45.1144C9.33936 44.8833 9.24619 44.6565 9.08184 44.4931Z" fill="#404040" stroke="white" stroke-width="0.2"/>
<path d="M39.5502 14.7841C39.5434 14.2988 39.142 13.912 38.6591 13.9176C38.1738 13.9244 37.7857 14.3233 37.7926 14.8087L37.7931 14.8644C37.795 15.3486 38.1882 15.7398 38.6719 15.7398C38.6731 15.7398 38.6743 15.7398 38.6755 15.7398C39.1609 15.7378 39.5528 15.3428 39.5509 14.8573L39.5502 14.7841Z" fill="#404040" stroke="white" stroke-width="0.2"/>
<path d="M37.7706 18.3196C37.3931 18.0146 36.8396 18.0736 36.5346 18.4512C35.4693 19.7706 33.887 20.5406 32.1934 20.5641C31.7081 20.5707 31.3201 20.9697 31.3267 21.455C31.3335 21.9363 31.7257 22.3218 32.2054 22.3218C32.2095 22.3218 32.2137 22.3218 32.2178 22.3217C34.4355 22.291 36.5076 21.2828 37.9022 19.5556C38.2073 19.1778 38.1483 18.6245 37.7706 18.3196Z" fill="#404040" stroke="white" stroke-width="0.2"/>
<path d="M45.1212 11.6815H44.6795C43.8881 11.6815 43.1788 11.2007 42.8722 10.4557L42.857 10.4189C42.5462 9.67138 42.7067 8.8271 43.2659 8.26803L43.578 7.95593C43.9212 7.61272 43.9212 7.05619 43.578 6.71289L40.2877 3.42261C39.9445 3.0794 39.388 3.0794 39.0447 3.42261L38.7326 3.73471C38.1734 4.29396 37.3289 4.45427 36.5811 4.14331L36.5442 4.12802C35.7999 3.82172 35.3191 3.11244 35.3191 2.32107V1.87934C35.3191 1.39391 34.9256 1.00043 34.4402 1.00043H29.7871C29.3016 1.00043 28.9081 1.39391 28.9081 1.87934V2.32986C28.9081 3.1186 28.4294 3.82576 27.6826 4.13365L27.6482 4.14797C26.9021 4.45893 26.0591 4.29932 25.5009 3.74095L25.1825 3.42252C24.8392 3.07931 24.2827 3.07931 23.9394 3.42252L20.6493 6.71289C20.3061 7.0561 20.3061 7.61263 20.6493 7.95593L21.1988 8.50542C21.4688 8.77542 21.6155 9.12945 21.6265 9.49648C21.0138 9.34373 20.3732 9.26216 19.714 9.26216H17.6047C13.2431 9.26216 9.69469 12.8106 9.69469 17.1722V19.8088H9.63246C8.1159 19.8088 6.88227 21.0426 6.88227 22.559V24.4412C6.88227 25.9577 8.11608 27.1914 9.63246 27.1914H9.85368C10.3165 29.4621 11.7553 31.382 13.7113 32.4927C13.7031 32.5408 13.6979 32.59 13.6979 32.6404V34.0653C13.6979 34.5466 13.5743 34.9871 12.067 35.4987L6.29278 36.8125C2.87937 37.5336 1 39.3707 1 41.986V45.1206C1 45.606 1.39349 45.9995 1.87891 45.9995H4.95614C5.44156 45.9995 5.83505 45.606 5.83505 45.1206C5.83505 44.6353 5.44156 44.2417 4.95614 44.2417H2.75782V41.986C2.75782 40.2394 4.07152 39.0768 6.66237 38.5309C6.66694 38.5299 6.67151 38.5289 6.67608 38.5279L10.9119 37.5641C10.948 37.5891 10.9856 37.6125 11.0262 37.6323L18.2607 41.1643C18.3823 41.2237 18.5144 41.2534 18.6463 41.2534C18.7782 41.2534 18.9102 41.2237 19.0319 41.1643L26.2663 37.6323C26.2706 37.6301 26.2745 37.6275 26.2788 37.6254L30.2453 38.5279C30.2499 38.5289 30.2545 38.5299 30.259 38.5309C32.8499 39.0768 34.1635 40.2393 34.1635 41.9863L34.1645 44.2416H11.8554C11.37 44.2416 10.9765 44.6352 10.9765 45.1206C10.9765 45.6059 11.37 45.9995 11.8554 45.9995H35.0437C35.2769 45.9995 35.5005 45.9068 35.6654 45.7419C35.8302 45.577 35.9227 45.3533 35.9226 45.1202L35.9212 41.9859C35.9212 39.3707 34.0418 37.5336 30.6285 36.8124L24.8542 35.4986C23.3467 34.987 23.2232 34.5465 23.2232 34.0652V32.7247C23.2232 32.7155 23.222 32.7065 23.2218 32.6973C25.373 31.6282 26.972 29.6086 27.4647 27.1913H27.686C29.2025 27.1913 30.4362 25.9575 30.4362 24.4411V22.5589C30.4362 21.0423 29.2024 19.8087 27.686 19.8087H27.6238V17.1721C27.6238 15.7921 27.2682 14.4938 26.6444 13.3632C27.3147 10.9521 29.5309 9.2445 32.0369 9.20987C33.5556 9.18834 34.987 9.75971 36.0741 10.8172C36.4221 11.1558 36.9785 11.1479 37.317 10.8001C37.6555 10.4521 37.6478 9.89568 37.2999 9.55721C35.8762 8.1724 33.9987 7.42718 32.0127 7.45232C29.1676 7.49169 26.6085 9.17875 25.4057 11.6851C24.8056 11.0629 24.1048 10.5382 23.3298 10.1382C23.5189 9.13314 23.229 8.09717 22.5128 7.33551L24.5787 5.26955C25.627 6.09906 27.0536 6.30042 28.327 5.76956L28.3588 5.75637C29.6259 5.23378 30.4875 4.0846 30.6413 2.75833H33.5871C33.7439 4.08416 34.6071 5.23167 35.8745 5.7533L35.907 5.76675C37.1763 6.29453 38.6 6.09423 39.648 5.26876L41.7318 7.35256C40.9064 8.40048 40.7061 9.82422 41.2335 11.0929L41.247 11.1254C41.7689 12.3934 42.9165 13.2565 44.2422 13.4134V16.3592C42.9157 16.5131 41.7666 17.3753 41.2421 18.6467L41.2301 18.6757C40.7001 19.947 40.9015 21.3735 41.7311 22.4218L39.6495 24.5032C38.6036 23.6708 37.1755 23.4668 35.9001 23.9962L35.8695 24.0088C34.5982 24.5313 33.7348 25.6845 33.5845 27.0153H29.787C29.3015 27.0153 28.9081 27.4089 28.9081 27.8942C28.9081 28.3796 29.3015 28.7731 29.787 28.7731H34.4401C34.9255 28.7731 35.319 28.3796 35.319 27.8942V27.4316C35.319 26.6441 35.7974 25.9388 36.5372 25.6349L36.5757 25.619C37.3213 25.3094 38.1623 25.4684 38.7177 26.024L39.0447 26.3509C39.2095 26.5158 39.433 26.6085 39.6662 26.6085C39.8992 26.6085 40.1228 26.5158 40.2876 26.351L43.5779 23.0608C43.9211 22.7175 43.9211 22.161 43.5779 21.8177L43.2595 21.4993C42.7012 20.941 42.5414 20.0981 42.8515 19.3542L42.8692 19.3118C43.1748 18.5708 43.8818 18.092 44.6707 18.092H45.1212C45.6066 18.092 46.0001 17.6985 46.0001 17.2131V12.56C46.0001 12.075 45.6066 11.6815 45.1212 11.6815ZM9.6946 25.4335H9.63237C9.08516 25.4335 8.63991 24.9884 8.63991 24.4411V22.5589C8.63991 22.0116 9.08516 21.5664 9.63237 21.5664H9.6946V25.4335ZM27.6239 21.5665H27.6861C28.2334 21.5665 28.6786 22.0118 28.6786 22.559V24.4412C28.6786 24.9885 28.2334 25.4336 27.6861 25.4336H27.6239V21.5665ZM23.6791 36.9393L18.6461 39.3966L13.4388 36.8542C14.3587 36.4375 15.4556 35.6548 15.4556 34.0653V33.2225C16.1392 33.4157 16.86 33.5193 17.6045 33.5193H19.7138C20.3156 33.5193 20.9018 33.4515 21.4655 33.3235V34.0653C21.4655 35.7702 22.7273 36.547 23.6791 36.9393ZM25.8662 25.6093C25.8662 26.4536 25.6949 27.2586 25.3859 27.9916H21.6292C21.1438 27.9916 20.7503 28.3852 20.7503 28.8705C20.7503 29.3558 21.1438 29.7494 21.6292 29.7494H24.2606C23.1345 30.985 21.5133 31.7615 19.7139 31.7615H17.6046C14.2123 31.7615 11.4524 29.0016 11.4524 25.6093V22.1817H14.2588C16.5254 22.1817 18.7002 21.5855 20.6053 20.4687C21.7978 21.5329 23.319 22.1158 24.9303 22.1158H25.8662V25.6093ZM25.8662 17.1721V20.358H24.9303C23.9015 20.358 22.9228 20.0329 22.1112 19.4314C22.4734 19.1409 22.8224 18.8297 23.1554 18.4966C23.4986 18.1534 23.4986 17.5968 23.1554 17.2535C22.8122 16.9103 22.2557 16.9103 21.9124 17.2535C19.868 19.2979 17.1498 20.4238 14.2588 20.4238H11.4524V17.1719C11.4524 13.7796 14.2123 11.0197 17.6046 11.0197H19.7139C23.1063 11.0199 25.8662 13.7797 25.8662 17.1721Z" fill="#404040" stroke="white" stroke-width="0.2"/>
</svg>
