<svg width="18" height="18" viewBox="0 0 18 18" fill="none" xmlns="http://www.w3.org/2000/svg">
<g clip-path="url(#clip0)">
<path d="M0.418158 18C0.317084 18 0.218756 17.96 0.145835 17.8863C0.0497041 17.7891 0.0126253 17.6479 0.0487429 17.5159L1.21892 13.2428C0.490393 11.9254 0.106284 10.4351 0.106833 8.92227C0.108893 4.00246 4.11259 0 9.03199 0C11.4181 0.000961305 13.6601 0.930405 15.3453 2.61681C17.0302 4.30334 17.9577 6.54524 17.957 8.92941C17.9548 13.8494 13.9511 17.8521 9.03199 17.8521C9.03199 17.8521 9.02828 17.8521 9.02814 17.8521C7.59127 17.8515 6.16675 17.5014 4.89838 16.8381L0.51525 17.9875C0.483115 17.9959 0.450431 18 0.418158 18Z" fill="#E5E5E5"/>
<path d="M0.418213 17.617L1.63 13.1919C0.882523 11.8967 0.489349 10.4276 0.489899 8.92245C0.491821 4.21385 4.32358 0.383057 9.03204 0.383057C11.3169 0.384018 13.4616 1.27336 15.0744 2.88753C16.687 4.50169 17.5749 6.64732 17.574 8.92932C17.572 13.6378 13.7397 17.4691 9.03204 17.4691C9.03177 17.4691 9.03218 17.4691 9.03204 17.4691H9.02833C7.59874 17.4686 6.19414 17.11 4.9465 16.4295L0.418213 17.617ZM5.1562 14.8836L5.41562 15.0373C6.50546 15.6841 7.75502 16.0262 9.0293 16.0269H9.03204C12.9451 16.0269 16.13 12.8425 16.1317 8.92877C16.1324 7.03212 15.3946 5.24863 14.0542 3.90706C12.7136 2.56549 10.9312 1.82625 9.03465 1.82542C5.11844 1.82542 1.93364 5.0094 1.93213 8.923C1.93158 10.2642 2.30676 11.5702 3.01758 12.7004L3.18649 12.969L2.46909 15.5881L5.1562 14.8836Z" fill="white"/>
<path d="M0.715332 17.3188L1.88524 13.0466C1.16344 11.7964 0.783997 10.3779 0.784409 8.92513C0.786194 4.37953 4.48543 0.681396 9.03061 0.681396C11.2367 0.682358 13.3072 1.54094 14.8638 3.09921C16.4208 4.65749 17.2778 6.72882 17.2769 8.93158C17.275 13.4773 13.5757 17.1759 9.03102 17.1759C9.03061 17.1759 9.03116 17.1759 9.03102 17.1759H9.02731C7.64729 17.1753 6.29117 16.829 5.08679 16.1725L0.715332 17.3188Z" fill="#64B161"/>
<path d="M0.418213 17.617L1.63 13.1919C0.882523 11.8967 0.489349 10.4276 0.489899 8.92245C0.491821 4.21385 4.32358 0.383057 9.03204 0.383057C11.3169 0.384018 13.4616 1.27336 15.0744 2.88753C16.687 4.50169 17.5749 6.64732 17.574 8.92932C17.572 13.6378 13.7397 17.4691 9.03204 17.4691C9.03177 17.4691 9.03218 17.4691 9.03204 17.4691H9.02833C7.59874 17.4686 6.19414 17.11 4.9465 16.4295L0.418213 17.617ZM5.1562 14.8836L5.41562 15.0373C6.50546 15.6841 7.75502 16.0262 9.0293 16.0269H9.03204C12.9451 16.0269 16.13 12.8425 16.1317 8.92877C16.1324 7.03212 15.3946 5.24863 14.0542 3.90706C12.7136 2.56549 10.9312 1.82625 9.03465 1.82542C5.11844 1.82542 1.93364 5.0094 1.93213 8.923C1.93158 10.2642 2.30676 11.5702 3.01758 12.7004L3.18649 12.969L2.46909 15.5881L5.1562 14.8836Z" fill="white"/>
<path fill-rule="evenodd" clip-rule="evenodd" d="M6.89705 5.35245C6.73719 4.99704 6.56883 4.9899 6.41667 4.98372C6.29225 4.97837 6.14984 4.97864 6.0077 4.97864C5.86543 4.97864 5.63417 5.0322 5.43861 5.24575C5.24292 5.45929 4.69141 5.97565 4.69141 7.0258C4.69141 8.0761 5.45633 9.09082 5.56303 9.23337C5.66974 9.37578 7.03959 11.5997 9.20898 12.4552C11.012 13.1663 11.3788 13.0249 11.7702 12.9893C12.1615 12.9538 13.0329 12.473 13.2107 11.9746C13.3887 11.4762 13.3887 11.0491 13.3353 10.9597C13.2819 10.8709 13.1396 10.8175 12.9262 10.7108C12.7128 10.6041 11.6635 10.0876 11.4678 10.0164C11.2721 9.94515 11.1298 9.90971 10.9875 10.1234C10.8451 10.3368 10.4364 10.8175 10.3119 10.9597C10.1873 11.1024 10.0628 11.1203 9.84934 11.0134C9.63593 10.9064 8.94846 10.6812 8.13301 9.95407C7.49855 9.38841 7.07008 8.68968 6.94552 8.476C6.8211 8.26259 6.94346 8.15712 7.03932 8.04053C7.21194 7.83055 7.50157 7.45304 7.5727 7.31076C7.64384 7.16821 7.60827 7.04366 7.55499 6.93682C7.50157 6.83011 7.0867 5.7746 6.89705 5.35245Z" fill="white"/>
</g>
<defs>
<clipPath id="clip0">
<rect width="18" height="18" fill="white"/>
</clipPath>
</defs>
</svg>
